# xmcd CD database file
#
# Track frame offsets:
#	150
#	15855
#	42187
#	57496
#	81590
#	98567
#	116743
#	137064
#	158806
#	182049
#	201867
#	226011
#	245715
#	266444
#	281729
#	294702
#
# Disc length: 4091 seconds
#
# Revision: 0
# Processed by: cddbd v1.5.2PL0 Copyright (c) Steve Scherf et al.
# Submitted via: cdripper 1,0,39,0213
#
DISCID=e20ff910
DTITLE=Various Artist - Only You
DYEAR=1900
DGENRE=Blues
TTITLE0=Alicia Keys - Fallin'
TTITLE1=George Michael - One More Try
TTITLE2=Natasha St-Pier - Tu trouveras
TTITLE3=Sade - No Ordinary Love
TTITLE4=Roch Voisine - Tant pis
TTITLE5=Axelle Red - Parce que c'est toi
TTITLE6=Terence Trent D'arby - Sign Your Name
TTITLE7=Des'Ree - I'm Kissing You
TTITLE8=Lucio Dalla - Caruso
TTITLE9=Earth, Wind and Fire - After The Love Has Gone
TTITLE10=The Chimes - I Still Haven't Found What I'm Looking For
TTITLE11=Paul Young - Everytime You Go Away
TTITLE12=Billy Paul - Me and Mrs Jones
TTITLE13=Harold Melvin and The Blue Notes - If You Don't Know Me By Now
TTITLE14=Dolly Parton - I Will Always Love You
TTITLE15=Elvis Presley - Love Me Tender
EXTD=
EXTT0=
EXTT1=
EXTT2=
EXTT3=
EXTT4=
EXTT5=
EXTT6=
EXTT7=
EXTT8=
EXTT9=
EXTT10=
EXTT11=
EXTT12=
EXTT13=
EXTT14=
EXTT15=
PLAYORDER=
